General
Unique ID                        : 181875689373974604196966046432902808837 (0x88D3FBCF50E47FE49EF2744F05C48505)
Complete name                    : Total Recall Extended 2012 BluRay Rip 720p x.264 preset placebo.mkv
Format                           : Matroska
File size                        : 1.46 GiB
Duration                         : 2h 10mn
Overall bit rate                 : 1 604 Kbps
Movie name                       : ????????? ???
Encoded date                     : UTC 2012-11-22 07:01:18
Writing application              : mkvmerge v4.7.0 ('Just Like You Imagined') built on Apr 21 2011 01:13:14
Writing library                  : libebml v1.2.0 + libmatroska v1.1.0

Video
ID                               : 1
Format                           : AVC
Format/Info                      : Advanced Video Codec
Format profile                   : High@L5.0
Format settings, CABAC           : Yes
Format settings, ReFrames        : 16 frames
Muxing mode                      : Header stripping
Codec ID                         : V_MPEG4/ISO/AVC
Duration                         : 2h 10mn
Bit rate                         : 1 500 Kbps
Width                            : 1 280 pixels
Height                           : 720 pixels
Display aspect ratio             : 16:9
Frame rate mode                  : Constant
Frame rate                       : 23.976 fps
Color space                      : YUV
Chroma subsampling               : 4:2:0
Bit depth                        : 8 bits
Scan type                        : Progressive
Bits/(Pixel*Frame)               : 0.068
Stream size                      : 1.31 GiB (90%)
Writing library                  : x264 core 129 r2230 1cffe9f
Encoding settings                : cabac=1 / ref=16 / deblock=1:0:0 / analyse=0x3:0x133 / me=tesa / subme=11 / psy=1 / psy_rd=1.00:0.00 / mixed_ref=1 / me_range=24 / chroma_me=1 / trellis=2 / 8x8dct=1 / cqm=0 / deadzone=21,11 / fast_pskip=0 / chroma_qp_offset=-2 / threads=6 / lookahead_threads=1 / sliced_threads=0 / nr=0 / decimate=1 / interlaced=0 / bluray_compat=0 / constrained_intra=0 / bframes=16 / b_pyramid=2 / b_adapt=2 / b_bias=0 / direct=3 / weightb=1 / open_gop=0 / weightp=2 / keyint=250 / keyint_min=23 / scenecut=40 / intra_refresh=0 / rc_lookahead=60 / rc=2pass / mbtree=1 / bitrate=1500 / ratetol=1.0 / qcomp=0.60 / qpmin=0 / qpmax=69 / qpstep=4 / cplxblur=20.0 / qblur=0.5 / ip_ratio=1.40 / aq=1:1.00
Language                         : English

Audio
ID                               : 2
Format                           : Vorbis
Format settings, Floor           : 1
Codec ID                         : A_VORBIS
Duration                         : 2h 10mn
Bit rate mode                    : Constant
Bit rate                         : 128 Kbps
Channel(s)                       : 2 channels
Sampling rate                    : 44.1 KHz
Compression mode                 : Lossy
Stream size                      : 119 MiB (8%)
Writing library                  : aoTuV 20110227 (UTC 2011-02-27)

